<mxfile host="app.diagrams.net" agent="Mozilla/5.0 (Windows NT 10.0; Win64; x64) AppleWebKit/537.36 (KHTML, like Gecko) Chrome/138.0.0.0 Safari/537.36 Edg/138.0.0.0" version="27.2.0">
  <diagram name="Page-1" id="F3CV9riizW1p0VMrwEPY">
    <mxGraphModel dx="2587" dy="786" grid="1" gridSize="10" guides="1" tooltips="1" connect="1" arrows="1" fold="1" page="1" pageScale="1" pageWidth="1169" pageHeight="827" math="0" shadow="0">
      <root>
        <mxCell id="0" />
        <mxCell id="1" parent="0" />
        <mxCell id="i4eNOY4q2BK7sGMd-eT4-19" value="" style="endArrow=none;html=1;rounded=0;" parent="1" edge="1">
          <mxGeometry width="50" height="50" relative="1" as="geometry">
            <mxPoint y="40" as="sourcePoint" />
            <mxPoint x="880" y="40" as="targetPoint" />
          </mxGeometry>
        </mxCell>
        <mxCell id="i4eNOY4q2BK7sGMd-eT4-20" value="CINEMAX System" style="text;html=1;align=center;verticalAlign=middle;resizable=0;points=[];autosize=1;strokeColor=none;fillColor=none;" parent="1" vertex="1">
          <mxGeometry x="360" y="10" width="120" height="30" as="geometry" />
        </mxCell>
        <mxCell id="i4eNOY4q2BK7sGMd-eT4-77" style="edgeStyle=orthogonalEdgeStyle;rounded=0;orthogonalLoop=1;jettySize=auto;html=1;entryX=0;entryY=0.5;entryDx=0;entryDy=0;endArrow=none;endFill=0;" parent="1" source="i4eNOY4q2BK7sGMd-eT4-21" target="i4eNOY4q2BK7sGMd-eT4-74" edge="1">
          <mxGeometry relative="1" as="geometry" />
        </mxCell>
        <mxCell id="i4eNOY4q2BK7sGMd-eT4-21" value="Customer" style="shape=umlActor;verticalLabelPosition=bottom;verticalAlign=top;html=1;outlineConnect=0;" parent="1" vertex="1">
          <mxGeometry x="-90" y="300" width="30" height="60" as="geometry" />
        </mxCell>
        <mxCell id="i4eNOY4q2BK7sGMd-eT4-25" value="Database" style="shape=umlActor;verticalLabelPosition=bottom;verticalAlign=top;html=1;outlineConnect=0;" parent="1" vertex="1">
          <mxGeometry x="940" y="150" width="30" height="60" as="geometry" />
        </mxCell>
        <mxCell id="i4eNOY4q2BK7sGMd-eT4-26" value="API Paiement" style="shape=umlActor;verticalLabelPosition=bottom;verticalAlign=top;html=1;outlineConnect=0;" parent="1" vertex="1">
          <mxGeometry x="940" y="480" width="30" height="60" as="geometry" />
        </mxCell>
        <mxCell id="i4eNOY4q2BK7sGMd-eT4-27" value="Search" style="ellipse;whiteSpace=wrap;html=1;fillColor=#dae8fc;strokeColor=#6c8ebf;" parent="1" vertex="1">
          <mxGeometry x="380" y="60" width="120" height="80" as="geometry" />
        </mxCell>
        <mxCell id="i4eNOY4q2BK7sGMd-eT4-29" value="" style="endArrow=none;html=1;rounded=0;exitX=1;exitY=0.5;exitDx=0;exitDy=0;" parent="1" source="i4eNOY4q2BK7sGMd-eT4-27" edge="1">
          <mxGeometry width="50" height="50" relative="1" as="geometry">
            <mxPoint x="480" y="160" as="sourcePoint" />
            <mxPoint x="930" y="170" as="targetPoint" />
          </mxGeometry>
        </mxCell>
        <mxCell id="i4eNOY4q2BK7sGMd-eT4-30" value="Movie" style="ellipse;whiteSpace=wrap;html=1;fillColor=#f8cecc;strokeColor=#b85450;" parent="1" vertex="1">
          <mxGeometry x="370" y="414" width="120" height="80" as="geometry" />
        </mxCell>
        <mxCell id="i4eNOY4q2BK7sGMd-eT4-33" value="" style="endArrow=none;html=1;rounded=0;exitX=0.983;exitY=0.35;exitDx=0;exitDy=0;exitPerimeter=0;" parent="1" source="i4eNOY4q2BK7sGMd-eT4-30" edge="1">
          <mxGeometry width="50" height="50" relative="1" as="geometry">
            <mxPoint x="494" y="234" as="sourcePoint" />
            <mxPoint x="930" y="190" as="targetPoint" />
          </mxGeometry>
        </mxCell>
        <mxCell id="i4eNOY4q2BK7sGMd-eT4-34" value="Consult" style="ellipse;whiteSpace=wrap;html=1;fillColor=#f8cecc;strokeColor=#b85450;" parent="1" vertex="1">
          <mxGeometry x="140" y="520" width="120" height="80" as="geometry" />
        </mxCell>
        <mxCell id="i4eNOY4q2BK7sGMd-eT4-35" value="Check" style="ellipse;whiteSpace=wrap;html=1;fillColor=#f8cecc;strokeColor=#b85450;" parent="1" vertex="1">
          <mxGeometry x="360" y="530" width="120" height="80" as="geometry" />
        </mxCell>
        <mxCell id="i4eNOY4q2BK7sGMd-eT4-36" value="To book" style="ellipse;whiteSpace=wrap;html=1;fillColor=#f8cecc;strokeColor=#b85450;" parent="1" vertex="1">
          <mxGeometry x="680" y="510" width="120" height="80" as="geometry" />
        </mxCell>
        <mxCell id="i4eNOY4q2BK7sGMd-eT4-38" value="" style="endArrow=classic;html=1;rounded=0;entryX=0.017;entryY=0.688;entryDx=0;entryDy=0;dashed=1;endFill=1;entryPerimeter=0;exitX=0.825;exitY=0.075;exitDx=0;exitDy=0;exitPerimeter=0;" parent="1" source="i4eNOY4q2BK7sGMd-eT4-34" target="i4eNOY4q2BK7sGMd-eT4-30" edge="1">
          <mxGeometry width="50" height="50" relative="1" as="geometry">
            <mxPoint x="127.96000000000001" y="520.9599999999999" as="sourcePoint" />
            <mxPoint x="349.99999999999994" y="389.99999999999994" as="targetPoint" />
          </mxGeometry>
        </mxCell>
        <mxCell id="i4eNOY4q2BK7sGMd-eT4-39" value="&amp;lt;&amp;lt;extends&amp;gt;&amp;gt;" style="edgeLabel;html=1;align=center;verticalAlign=middle;resizable=0;points=[];" parent="i4eNOY4q2BK7sGMd-eT4-38" vertex="1" connectable="0">
          <mxGeometry x="-0.0138" y="-3" relative="1" as="geometry">
            <mxPoint as="offset" />
          </mxGeometry>
        </mxCell>
        <mxCell id="i4eNOY4q2BK7sGMd-eT4-40" value="" style="endArrow=classic;dashed=1;html=1;rounded=0;endFill=1;exitX=0.5;exitY=0;exitDx=0;exitDy=0;" parent="1" source="i4eNOY4q2BK7sGMd-eT4-35" target="i4eNOY4q2BK7sGMd-eT4-30" edge="1">
          <mxGeometry width="50" height="50" relative="1" as="geometry">
            <mxPoint x="410" y="350" as="sourcePoint" />
            <mxPoint x="380" y="300" as="targetPoint" />
          </mxGeometry>
        </mxCell>
        <mxCell id="i4eNOY4q2BK7sGMd-eT4-41" value="&amp;lt;&amp;lt;extends&amp;gt;&amp;gt;" style="edgeLabel;html=1;align=center;verticalAlign=middle;resizable=0;points=[];" parent="i4eNOY4q2BK7sGMd-eT4-40" vertex="1" connectable="0">
          <mxGeometry x="-0.0202" y="-2" relative="1" as="geometry">
            <mxPoint as="offset" />
          </mxGeometry>
        </mxCell>
        <mxCell id="i4eNOY4q2BK7sGMd-eT4-42" value="" style="endArrow=classic;dashed=1;html=1;rounded=0;entryX=0.767;entryY=0.988;entryDx=0;entryDy=0;entryPerimeter=0;exitX=0.25;exitY=0.063;exitDx=0;exitDy=0;exitPerimeter=0;startArrow=oval;startFill=1;endFill=1;" parent="1" source="i4eNOY4q2BK7sGMd-eT4-36" target="i4eNOY4q2BK7sGMd-eT4-30" edge="1">
          <mxGeometry width="50" height="50" relative="1" as="geometry">
            <mxPoint x="500" y="330" as="sourcePoint" />
            <mxPoint x="550" y="280" as="targetPoint" />
          </mxGeometry>
        </mxCell>
        <mxCell id="i4eNOY4q2BK7sGMd-eT4-43" value="&amp;lt;&amp;lt;extends&amp;gt;&amp;gt;" style="edgeLabel;html=1;align=center;verticalAlign=middle;resizable=0;points=[];" parent="i4eNOY4q2BK7sGMd-eT4-42" vertex="1" connectable="0">
          <mxGeometry x="0.0199" y="-2" relative="1" as="geometry">
            <mxPoint as="offset" />
          </mxGeometry>
        </mxCell>
        <mxCell id="i4eNOY4q2BK7sGMd-eT4-52" style="edgeStyle=orthogonalEdgeStyle;rounded=0;orthogonalLoop=1;jettySize=auto;html=1;exitX=1;exitY=0.5;exitDx=0;exitDy=0;endArrow=none;endFill=0;" parent="1" source="i4eNOY4q2BK7sGMd-eT4-48" edge="1">
          <mxGeometry relative="1" as="geometry">
            <mxPoint x="930" y="540" as="targetPoint" />
            <Array as="points">
              <mxPoint x="480" y="700" />
              <mxPoint x="921" y="700" />
              <mxPoint x="921" y="540" />
            </Array>
          </mxGeometry>
        </mxCell>
        <mxCell id="i4eNOY4q2BK7sGMd-eT4-68" style="edgeStyle=orthogonalEdgeStyle;rounded=0;orthogonalLoop=1;jettySize=auto;html=1;endArrow=none;endFill=0;" parent="1" source="i4eNOY4q2BK7sGMd-eT4-48" edge="1">
          <mxGeometry relative="1" as="geometry">
            <mxPoint x="-70" y="390" as="targetPoint" />
          </mxGeometry>
        </mxCell>
        <mxCell id="i4eNOY4q2BK7sGMd-eT4-48" value="Paiement card" style="ellipse;whiteSpace=wrap;html=1;fillColor=#d5e8d4;strokeColor=#82b366;" parent="1" vertex="1">
          <mxGeometry x="360" y="690" width="120" height="80" as="geometry" />
        </mxCell>
        <mxCell id="i4eNOY4q2BK7sGMd-eT4-49" value="" style="endArrow=none;dashed=1;html=1;rounded=0;exitX=0.5;exitY=0;exitDx=0;exitDy=0;startArrow=classic;startFill=1;entryX=0.008;entryY=0.625;entryDx=0;entryDy=0;entryPerimeter=0;" parent="1" source="i4eNOY4q2BK7sGMd-eT4-48" target="i4eNOY4q2BK7sGMd-eT4-36" edge="1">
          <mxGeometry width="50" height="50" relative="1" as="geometry">
            <mxPoint x="620" y="430" as="sourcePoint" />
            <mxPoint x="670" y="380" as="targetPoint" />
          </mxGeometry>
        </mxCell>
        <mxCell id="i4eNOY4q2BK7sGMd-eT4-50" value="&amp;lt;&amp;lt;Include&amp;gt;&amp;gt;" style="edgeLabel;html=1;align=center;verticalAlign=middle;resizable=0;points=[];" parent="i4eNOY4q2BK7sGMd-eT4-49" vertex="1" connectable="0">
          <mxGeometry x="0.1784" y="4" relative="1" as="geometry">
            <mxPoint x="28" y="-10" as="offset" />
          </mxGeometry>
        </mxCell>
        <mxCell id="i4eNOY4q2BK7sGMd-eT4-54" value="&amp;nbsp;Account" style="ellipse;whiteSpace=wrap;html=1;fillColor=#fff2cc;strokeColor=#d6b656;" parent="1" vertex="1">
          <mxGeometry x="375" y="180" width="120" height="80" as="geometry" />
        </mxCell>
        <mxCell id="i4eNOY4q2BK7sGMd-eT4-57" value="" style="endArrow=none;html=1;rounded=0;exitX=1;exitY=0.5;exitDx=0;exitDy=0;" parent="1" source="i4eNOY4q2BK7sGMd-eT4-54" edge="1">
          <mxGeometry width="50" height="50" relative="1" as="geometry">
            <mxPoint x="400" y="380" as="sourcePoint" />
            <mxPoint x="930" y="180" as="targetPoint" />
          </mxGeometry>
        </mxCell>
        <mxCell id="i4eNOY4q2BK7sGMd-eT4-58" value="Create" style="ellipse;whiteSpace=wrap;html=1;fillColor=#fff2cc;strokeColor=#d6b656;" parent="1" vertex="1">
          <mxGeometry x="170" y="280" width="120" height="60" as="geometry" />
        </mxCell>
        <mxCell id="i4eNOY4q2BK7sGMd-eT4-65" value="" style="edgeStyle=orthogonalEdgeStyle;rounded=0;orthogonalLoop=1;jettySize=auto;html=1;" parent="1" source="i4eNOY4q2BK7sGMd-eT4-59" target="i4eNOY4q2BK7sGMd-eT4-54" edge="1">
          <mxGeometry relative="1" as="geometry" />
        </mxCell>
        <mxCell id="i4eNOY4q2BK7sGMd-eT4-59" value="Modify" style="ellipse;whiteSpace=wrap;html=1;fillColor=#fff2cc;strokeColor=#d6b656;" parent="1" vertex="1">
          <mxGeometry x="320" y="290" width="110" height="60" as="geometry" />
        </mxCell>
        <mxCell id="i4eNOY4q2BK7sGMd-eT4-60" value="Delete" style="ellipse;whiteSpace=wrap;html=1;fillColor=#fff2cc;strokeColor=#d6b656;" parent="1" vertex="1">
          <mxGeometry x="450" y="280" width="100" height="60" as="geometry" />
        </mxCell>
        <mxCell id="i4eNOY4q2BK7sGMd-eT4-61" value="" style="endArrow=classic;dashed=1;html=1;rounded=0;entryX=0.067;entryY=0.8;entryDx=0;entryDy=0;entryPerimeter=0;endFill=1;" parent="1" source="i4eNOY4q2BK7sGMd-eT4-58" target="i4eNOY4q2BK7sGMd-eT4-54" edge="1">
          <mxGeometry width="50" height="50" relative="1" as="geometry">
            <mxPoint x="400" y="380" as="sourcePoint" />
            <mxPoint x="450" y="330" as="targetPoint" />
          </mxGeometry>
        </mxCell>
        <mxCell id="i4eNOY4q2BK7sGMd-eT4-62" value="&amp;lt;&amp;lt;extends&amp;gt;&amp;gt;" style="edgeLabel;html=1;align=center;verticalAlign=middle;resizable=0;points=[];" parent="i4eNOY4q2BK7sGMd-eT4-61" vertex="1" connectable="0">
          <mxGeometry x="-0.0352" y="2" relative="1" as="geometry">
            <mxPoint as="offset" />
          </mxGeometry>
        </mxCell>
        <mxCell id="i4eNOY4q2BK7sGMd-eT4-63" value="" style="endArrow=none;dashed=1;html=1;rounded=0;entryX=0.5;entryY=1;entryDx=0;entryDy=0;exitX=0.5;exitY=0;exitDx=0;exitDy=0;" parent="1" source="i4eNOY4q2BK7sGMd-eT4-59" target="i4eNOY4q2BK7sGMd-eT4-54" edge="1">
          <mxGeometry width="50" height="50" relative="1" as="geometry">
            <mxPoint x="400" y="380" as="sourcePoint" />
            <mxPoint x="450" y="330" as="targetPoint" />
          </mxGeometry>
        </mxCell>
        <mxCell id="i4eNOY4q2BK7sGMd-eT4-66" value="&amp;lt;&amp;lt;extends&amp;gt;&amp;gt;" style="edgeLabel;html=1;align=center;verticalAlign=middle;resizable=0;points=[];" parent="i4eNOY4q2BK7sGMd-eT4-63" vertex="1" connectable="0">
          <mxGeometry x="0.1" relative="1" as="geometry">
            <mxPoint as="offset" />
          </mxGeometry>
        </mxCell>
        <mxCell id="i4eNOY4q2BK7sGMd-eT4-69" value="" style="endArrow=none;html=1;rounded=0;" parent="1" edge="1">
          <mxGeometry width="50" height="50" relative="1" as="geometry">
            <mxPoint y="801" as="sourcePoint" />
            <mxPoint y="40" as="targetPoint" />
          </mxGeometry>
        </mxCell>
        <mxCell id="i4eNOY4q2BK7sGMd-eT4-72" value="" style="endArrow=none;html=1;rounded=0;" parent="1" edge="1">
          <mxGeometry width="50" height="50" relative="1" as="geometry">
            <mxPoint x="880" y="802" as="sourcePoint" />
            <mxPoint x="880" y="40" as="targetPoint" />
          </mxGeometry>
        </mxCell>
        <mxCell id="i4eNOY4q2BK7sGMd-eT4-73" value="" style="endArrow=none;html=1;rounded=0;" parent="1" edge="1">
          <mxGeometry width="50" height="50" relative="1" as="geometry">
            <mxPoint y="800" as="sourcePoint" />
            <mxPoint x="880" y="800" as="targetPoint" />
          </mxGeometry>
        </mxCell>
        <mxCell id="i4eNOY4q2BK7sGMd-eT4-81" style="edgeStyle=orthogonalEdgeStyle;rounded=0;orthogonalLoop=1;jettySize=auto;html=1;endArrow=none;endFill=0;entryX=0.042;entryY=0.5;entryDx=0;entryDy=0;entryPerimeter=0;dashed=1;startArrow=classic;startFill=1;" parent="1" source="i4eNOY4q2BK7sGMd-eT4-74" target="i4eNOY4q2BK7sGMd-eT4-54" edge="1">
          <mxGeometry relative="1" as="geometry">
            <mxPoint x="370" y="220" as="targetPoint" />
            <Array as="points">
              <mxPoint x="90" y="220" />
            </Array>
          </mxGeometry>
        </mxCell>
        <mxCell id="Re7Gte4YFI9kTlfvZFSI-20" value="&amp;lt;&amp;lt;include&amp;gt;&amp;gt;" style="edgeLabel;html=1;align=center;verticalAlign=middle;resizable=0;points=[];" vertex="1" connectable="0" parent="i4eNOY4q2BK7sGMd-eT4-81">
          <mxGeometry x="0.1082" y="-1" relative="1" as="geometry">
            <mxPoint as="offset" />
          </mxGeometry>
        </mxCell>
        <mxCell id="Re7Gte4YFI9kTlfvZFSI-12" style="edgeStyle=orthogonalEdgeStyle;rounded=0;orthogonalLoop=1;jettySize=auto;html=1;entryX=0;entryY=0.5;entryDx=0;entryDy=0;dashed=1;endArrow=none;endFill=0;startArrow=classic;startFill=1;" edge="1" parent="1" source="i4eNOY4q2BK7sGMd-eT4-74" target="i4eNOY4q2BK7sGMd-eT4-27">
          <mxGeometry relative="1" as="geometry">
            <Array as="points">
              <mxPoint x="70" y="100" />
            </Array>
          </mxGeometry>
        </mxCell>
        <mxCell id="Re7Gte4YFI9kTlfvZFSI-15" value="&amp;lt;&amp;lt;include&amp;gt;&amp;gt;" style="edgeLabel;html=1;align=center;verticalAlign=middle;resizable=0;points=[];" vertex="1" connectable="0" parent="Re7Gte4YFI9kTlfvZFSI-12">
          <mxGeometry x="0.2918" y="3" relative="1" as="geometry">
            <mxPoint as="offset" />
          </mxGeometry>
        </mxCell>
        <mxCell id="i4eNOY4q2BK7sGMd-eT4-74" value="Log in" style="ellipse;whiteSpace=wrap;html=1;fillColor=#e1d5e7;strokeColor=#9673a6;" parent="1" vertex="1">
          <mxGeometry x="20" y="230" width="120" height="80" as="geometry" />
        </mxCell>
        <mxCell id="Re7Gte4YFI9kTlfvZFSI-2" value="" style="endArrow=none;dashed=1;html=1;rounded=0;exitX=0.967;exitY=0.75;exitDx=0;exitDy=0;exitPerimeter=0;entryX=0;entryY=0.5;entryDx=0;entryDy=0;startArrow=classic;startFill=1;" edge="1" parent="1" source="i4eNOY4q2BK7sGMd-eT4-54" target="i4eNOY4q2BK7sGMd-eT4-60">
          <mxGeometry width="50" height="50" relative="1" as="geometry">
            <mxPoint x="490" y="270" as="sourcePoint" />
            <mxPoint x="540" y="220" as="targetPoint" />
          </mxGeometry>
        </mxCell>
        <mxCell id="Re7Gte4YFI9kTlfvZFSI-3" value="&amp;lt;&amp;lt;extends&amp;gt;&amp;gt;" style="edgeLabel;html=1;align=center;verticalAlign=middle;resizable=0;points=[];" vertex="1" connectable="0" parent="Re7Gte4YFI9kTlfvZFSI-2">
          <mxGeometry x="-0.0973" y="1" relative="1" as="geometry">
            <mxPoint as="offset" />
          </mxGeometry>
        </mxCell>
        <mxCell id="Re7Gte4YFI9kTlfvZFSI-14" style="edgeStyle=orthogonalEdgeStyle;rounded=0;orthogonalLoop=1;jettySize=auto;html=1;entryX=0.017;entryY=0.35;entryDx=0;entryDy=0;entryPerimeter=0;dashed=1;startArrow=classic;startFill=1;endArrow=none;endFill=0;" edge="1" parent="1" source="i4eNOY4q2BK7sGMd-eT4-74" target="i4eNOY4q2BK7sGMd-eT4-30">
          <mxGeometry relative="1" as="geometry">
            <Array as="points">
              <mxPoint x="80" y="410" />
              <mxPoint x="372" y="410" />
            </Array>
          </mxGeometry>
        </mxCell>
        <mxCell id="Re7Gte4YFI9kTlfvZFSI-21" value="&amp;lt;&amp;lt;include&amp;gt;&amp;gt;" style="edgeLabel;html=1;align=center;verticalAlign=middle;resizable=0;points=[];" vertex="1" connectable="0" parent="Re7Gte4YFI9kTlfvZFSI-14">
          <mxGeometry x="0.0849" relative="1" as="geometry">
            <mxPoint as="offset" />
          </mxGeometry>
        </mxCell>
        <mxCell id="Re7Gte4YFI9kTlfvZFSI-25" value="To book" style="ellipse;whiteSpace=wrap;html=1;fillColor=#fff2cc;strokeColor=#d6b656;" vertex="1" parent="1">
          <mxGeometry x="570" y="230" width="100" height="60" as="geometry" />
        </mxCell>
        <mxCell id="Re7Gte4YFI9kTlfvZFSI-26" value="" style="endArrow=none;dashed=1;html=1;rounded=0;entryX=-0.02;entryY=0.4;entryDx=0;entryDy=0;entryPerimeter=0;exitX=0.958;exitY=0.625;exitDx=0;exitDy=0;exitPerimeter=0;endFill=0;startArrow=classic;startFill=1;" edge="1" parent="1" source="i4eNOY4q2BK7sGMd-eT4-54" target="Re7Gte4YFI9kTlfvZFSI-25">
          <mxGeometry width="50" height="50" relative="1" as="geometry">
            <mxPoint x="410" y="410" as="sourcePoint" />
            <mxPoint x="460" y="360" as="targetPoint" />
          </mxGeometry>
        </mxCell>
        <mxCell id="Re7Gte4YFI9kTlfvZFSI-27" value="&amp;lt;&amp;lt;extends&amp;gt;&amp;gt;" style="edgeLabel;html=1;align=center;verticalAlign=middle;resizable=0;points=[];" vertex="1" connectable="0" parent="Re7Gte4YFI9kTlfvZFSI-26">
          <mxGeometry x="-0.0392" y="-2" relative="1" as="geometry">
            <mxPoint x="13" y="-3" as="offset" />
          </mxGeometry>
        </mxCell>
      </root>
    </mxGraphModel>
  </diagram>
</mxfile>
